<svg xmlns="http://www.w3.org/2000/svg" width="1483.398" height="374" viewBox="0 0 1483.398 374">
  <g id="GroDoc_Logo" data-name="GroDoc Logo" transform="translate(-67.994 -69)">
    <g id="GroDoc_Logo_Icon" data-name="GroDoc Logo Icon">
      <g id="Medical_Sign_" data-name="Medical Sign " transform="translate(75.88 78)" fill="#00b420" stroke-miterlimit="10">
        <path d="M 228.0000152587891 360.5 L 132.0000152587891 360.5 C 127.8645172119141 360.5 124.5000152587891 357.135498046875 124.5000152587891 353 L 124.5000152587891 269.6025695800781 L 51.8233642578125 309.4861145019531 C 50.71996688842773 310.0916442871094 49.47321701049805 310.4117126464844 48.21781539916992 310.4117126464844 C 45.44441604614258 310.4117126464844 42.90931701660156 308.8930969238281 41.60171508789063 306.4485473632813 L -1.570884823799133 225.7344970703125 C -2.507284879684448 223.9839019775391 -2.71253490447998 221.9712982177734 -2.148834705352783 220.0675964355469 C -1.585134863853455 218.1639556884766 -0.3171848058700562 216.587646484375 1.421415209770203 215.6291046142578 L 69.63180541992188 178.0251312255859 L 0.5352652072906494 140.4147491455078 C -1.248534798622131 139.44384765625 -2.536984920501709 137.8333435058594 -3.092784881591797 135.8800048828125 C -3.648584842681885 133.9266510009766 -3.400984764099121 131.8791046142578 -2.395634889602661 130.1145477294922 L 43.61311340332031 49.36455154418945 C 44.94416427612305 47.02830123901367 47.44221496582031 45.57695007324219 50.13231658935547 45.57695007324219 C 51.41516494750977 45.57695007324219 52.68566513061523 45.91014862060547 53.80646514892578 46.54059982299805 L 124.5000152587891 86.30570983886719 L 124.5000152587891 3 C 124.5000152587891 -1.135499954223633 127.8645172119141 -4.5 132.0000152587891 -4.5 L 228.0000152587891 -4.5 C 232.1355133056641 -4.5 235.5000152587891 -1.135499954223633 235.5000152587891 3 L 235.5000152587891 86.39742279052734 L 308.1766052246094 46.51390075683594 C 309.280029296875 45.90835189819336 310.5268249511719 45.58829879760742 311.7821044921875 45.58829879760742 C 314.5555725097656 45.58829879760742 317.0907287597656 47.10689926147461 318.3983154296875 49.55149841308594 L 361.5785217285156 130.2797546386719 C 362.5112609863281 132.0236511230469 362.7185668945313 134.0292053222656 362.1622619628906 135.927001953125 C 361.6059265136719 137.8247985839844 360.3485717773438 139.4010467529297 358.6218566894531 140.3652954101563 L 291.2750244140625 177.9746398925781 L 359.5444030761719 215.6103057861328 C 361.2992553710938 216.5777435302734 362.5721130371094 218.1707000732422 363.1285705566406 220.0956573486328 C 363.6850280761719 222.0207061767578 363.4583740234375 224.0470428466797 362.4903564453125 225.8015441894531 L 317.3936157226563 307.5393981933594 C 316.0740356445313 309.9310607910156 313.5565795898438 311.4169006347656 310.82421875 311.4169006347656 C 310.8238830566406 311.4169006347656 310.8240051269531 311.4169006347656 310.8236694335938 311.4169006347656 C 309.5547790527344 311.4168090820313 308.2963256835938 311.0902404785156 307.1844177246094 310.4725036621094 L 235.5000152587891 270.6477966308594 L 235.5000152587891 353 C 235.5000152587891 357.135498046875 232.1355133056641 360.5 228.0000152587891 360.5 Z" stroke="none"/>
        <path d="M 228.0000152587891 356 C 229.6568756103516 356 231.0000152587891 354.6568603515625 231.0000152587891 353 L 231.0000152587891 264.6995239257813 C 231.0000152587891 264.116943359375 231.4782409667969 263.6980590820313 232.001220703125 263.6980590820313 C 232.1626739501953 263.6980590820313 232.3283843994141 263.7379760742188 232.4856109619141 263.8253479003906 L 309.3698120117188 306.5387878417969 C 309.8312377929688 306.7951354980469 310.3311767578125 306.9168395996094 310.823974609375 306.9168701171875 C 311.8812255859375 306.9169311523438 312.9064331054688 306.3570861816406 313.4534912109375 305.3655395507813 L 358.55029296875 223.6275939941406 C 359.3508911132813 222.1766052246094 358.8232116699219 220.3512725830078 357.3718872070313 219.5511322021484 L 283.5782775878906 178.8701324462891 C 282.8908081054688 178.4911346435547 282.8881530761719 177.5039978027344 283.5735473632813 177.1212615966797 L 356.4278259277344 136.4364013671875 C 357.8558959960938 135.6389312744141 358.3819580078125 133.8444671630859 357.6104736328125 132.4022064208984 L 314.4302062988281 51.67393493652344 C 313.8893432617188 50.66265106201172 312.8525695800781 50.08828735351563 311.7821350097656 50.08828735351563 C 311.2943420410156 50.08828735351563 310.7997741699219 50.20744705200195 310.3416137695313 50.45886611938477 L 232.4810791015625 93.18720245361328 C 232.3251037597656 93.27280426025391 232.1609802246094 93.31195831298828 232.0010986328125 93.31195831298828 C 231.4779205322266 93.31196594238281 231.0000152587891 92.89279174804688 231.0000152587891 92.31053161621094 L 231.0000152587891 3 C 231.0000152587891 1.343133330345154 229.6568756103516 0 228.0000152587891 0 L 132.0000152587891 0 C 130.3431549072266 0 129.0000152587891 1.343133330345154 129.0000152587891 3 L 129.0000152587891 92.29013061523438 C 129.0000152587891 92.87312316894531 128.5214538574219 93.29158020019531 127.9987030029297 93.29160308837891 C 127.8356094360352 93.29161071777344 127.6682586669922 93.25089263916016 127.5097503662109 93.16173553466797 L 51.60034942626953 50.46273422241211 C 51.1354866027832 50.20123672485352 50.63041305541992 50.07694244384766 50.13230133056641 50.07694244384766 C 49.08913421630859 50.07694244384766 48.07597732543945 50.62175369262695 47.52301406860352 51.59226608276367 L 1.514281868934631 132.3422698974609 C 0.6827484965324402 133.8016662597656 1.211348533630371 135.6593322753906 2.686615228652954 136.46240234375 L 77.39488220214844 177.1272735595703 C 78.08868408203125 177.5048675537109 78.09134674072266 178.5 77.39961242675781 178.8813323974609 L 3.594148635864258 219.5698699951172 C 2.156148433685303 220.3625946044922 1.622681856155396 222.1641387939453 2.397148609161377 223.612060546875 L 45.56974792480469 304.3260803222656 C 46.11065292358398 305.3373413085938 47.1474609375 305.9117431640625 48.21787643432617 305.9117431640625 C 48.7056770324707 305.9117431640625 49.20025634765625 305.7925720214844 49.65841674804688 305.5411376953125 L 127.5188827514648 262.8128051757813 C 127.6748809814453 262.7272033691406 127.8390121459961 262.6880493164063 127.9989013671875 262.6880493164063 C 128.5221099853516 262.6880493164063 129.0000152587891 263.1072082519531 129.0000152587891 263.689453125 L 129.0000152587891 353 C 129.0000152587891 354.6568603515625 130.3431549072266 356 132.0000152587891 356 L 228.0000152587891 356 M 228.0000152587891 365 L 132.0000152587891 365 C 125.3832168579102 365 120.0000152587891 359.6167907714844 120.0000152587891 353 L 120.0000152587891 277.2051696777344 L 53.98828125 313.4311218261719 C 52.22388076782227 314.3995971679688 50.2282829284668 314.9117431640625 48.21788024902344 314.9117431640625 C 43.78141403198242 314.9117431640625 39.72581481933594 312.4821472167969 37.63374710083008 308.5710754394531 L -5.538918018341064 227.85693359375 C -8.620451927185059 222.0956726074219 -6.472517967224121 214.8424072265625 -0.7508514523506165 211.6882019042969 L 60.2653923034668 178.0503234863281 L -1.616118192672729 144.3672637939453 C -4.47031831741333 142.8135375976563 -6.531785011291504 140.2367401123047 -7.421051502227783 137.1114044189453 C -8.310251235961914 133.9860687255859 -7.91411828994751 130.7100067138672 -6.305451393127441 127.8867340087891 L 39.70321655273438 47.13679885864258 C 41.83274841308594 43.39906692504883 45.82894897460938 41.07693481445313 50.13228225708008 41.07693481445313 C 52.18621444702148 41.07693481445313 54.219482421875 41.60993194580078 56.01241683959961 42.61840057373047 L 120.0000152587891 78.61138153076172 L 120.0000152587891 3 C 120.0000152587891 -3.61680006980896 125.3832168579102 -9 132.0000152587891 -9 L 228.0000152587891 -9 C 234.6168212890625 -9 240.0000152587891 -3.61680006980896 240.0000152587891 3 L 240.0000152587891 78.7947998046875 L 306.0117492675781 42.56886672973633 C 307.7769470214844 41.60020065307617 309.772216796875 41.0882682800293 311.7821350097656 41.0882682800293 C 316.2188110351563 41.0882682800293 320.2744750976563 43.51800155639648 322.3664245605469 47.4293327331543 L 365.5465393066406 128.1573333740234 C 368.6113586425781 133.8870697021484 366.4892272949219 141.1260681152344 360.8158264160156 144.2942047119141 L 300.5498962402344 177.9492645263672 L 361.7168884277344 211.6694641113281 C 364.5246887207031 213.2174072265625 366.5612182617188 215.7660675048828 367.4515380859375 218.8459320068359 C 368.3419494628906 221.9259948730469 367.9792785644531 225.1682739257813 366.4303588867188 227.9754638671875 L 321.3336791992188 309.7131958007813 C 319.222412109375 313.539794921875 315.1954040527344 315.9168701171875 310.8241577148438 315.9168701171875 C 308.7912902832031 315.9165954589844 306.7774047851563 315.3941955566406 304.9990234375 314.4061889648438 L 240.0000152587891 278.2956237792969 L 240.0000152587891 353 C 240.0000152587891 359.6167907714844 234.6168212890625 365 228.0000152587891 365 Z" stroke="none" fill="#00b420"/>
      </g>
      <rect id="Left_White_Diagonal_Line" data-name="Left White Diagonal Line" width="16" height="332" rx="7" transform="matrix(0.485, -0.875, 0.875, 0.485, 106.935, 182.519)" fill="#fff"/>
      <rect id="Right_White_Diagonal_Line" data-name="Right White Diagonal Line" width="16" height="332" rx="7" transform="matrix(0.485, 0.875, -0.875, 0.485, 397.308, 168.525)" fill="#fff"/>
      <path id="Right_Green_Line" data-name="Right Green Line" d="M1,0V348" transform="translate(273 82)" fill="none" stroke="#00b420" stroke-linecap="square" stroke-miterlimit="10" stroke-width="20"/>
      <path id="Left_Green_Line" data-name="Left Green Line" d="M1,0V348" transform="translate(237 83)" fill="none" stroke="#00b420" stroke-linecap="square" stroke-miterlimit="10" stroke-width="20"/>
      <rect id="Center_White_Line" data-name="Center White Line" width="16" height="332" rx="7" transform="translate(248 90)" fill="#fff"/>
    </g>
  </g>
</svg>
