<?xml version="1.0" encoding="UTF-8"?>
<svg width="154px" height="38px" viewBox="0 0 154 38" version="1.1" xmlns="http://www.w3.org/2000/svg" xmlns:xlink="http://www.w3.org/1999/xlink">
    <!-- Generator: Sketch 54.1 (76490) - https://sketchapp.com -->
    <title>GroDoc Logo</title>
    <desc>Created with Sketch.</desc>
    <g id="Homepage" stroke="none" stroke-width="1" fill="none" fill-rule="evenodd">
        <g id="DESKTOP---NEW---Homepage" transform="translate(-150.000000, -15.000000)">
            <g id="Header-&amp;-Menu" transform="translate(0.000000, 15.000000)">
                <g id="GroDoc-Logo" transform="translate(151.000000, 0.000000)">
                    <path d="M63.8965665,17.2228503 L63.8965665,26.6540605 C63.8965665,28.8007273 62.5759693,30.425366 59.9347353,31.5280255 C58.4570405,32.1497377 56.8397453,32.4605892 55.082801,32.4605892 C53.3258568,32.4605892 51.7085616,32.1497377 50.2308668,31.5280255 C47.5896327,30.425366 46.2690355,28.8007273 46.2690355,26.6540605 L46.2690355,10.9940287 C46.2690355,8.84736188 47.5896327,7.22272314 50.2308668,6.12006369 C51.7085616,5.49835146 53.3258568,5.1875 55.082801,5.1875 C56.8397453,5.1875 58.4570405,5.49835146 59.9347353,6.12006369 C62.5759693,7.22272314 63.8965665,8.84736188 63.8965665,10.9940287 L63.8965665,13.6333599 L60.5804963,15.2169586 L60.4059663,15.2169586 L60.4059663,10.9940287 C60.4059663,10.1846297 59.7020357,9.49841046 58.2941532,8.93535032 C57.3167803,8.54824647 56.2463403,8.35469745 55.082801,8.35469745 C53.9192618,8.35469745 52.8488218,8.54824647 51.8714489,8.93535032 C50.4635664,9.49841046 49.7596357,10.1846297 49.7596357,10.9940287 L49.7596357,26.6540605 C49.7596357,27.4634595 50.4635664,28.1496787 51.8714489,28.7127389 C52.8488218,29.0998427 53.9192618,29.2933917 55.082801,29.2933917 C56.2463403,29.2933917 57.3167803,29.0998427 58.2941532,28.7127389 C59.7020357,28.1496787 60.4059663,27.4634595 60.4059663,26.6540605 L60.4059663,20.4252389 L54.332322,20.4252389 L54.332322,20.2492834 L55.7460151,17.2228503 L63.8965665,17.2228503 Z M68.2529725,32.8125 L68.2529725,16.7125796 C68.2529725,15.1407034 69.3408653,13.9324883 71.5166837,13.0878981 C72.6918583,12.6304117 74.0182731,12.401672 75.4959679,12.401672 L77.852123,12.401672 L77.852123,12.5776274 L76.4558829,15.5688694 L75.4959679,15.5688694 C74.4487826,15.5688694 73.5615972,15.7154975 72.8343852,16.008758 C72.1071732,16.3020185 71.7435727,16.7419026 71.7435727,17.3284236 L71.7435727,31.2289013 L68.4275025,32.8125 L68.2529725,32.8125 Z M82.557589,27.5338376 C82.557589,28.1203586 82.9211895,28.5602427 83.6484015,28.8535032 C84.3756136,29.1467637 85.2627989,29.2933917 86.3099842,29.2933917 C87.3571695,29.2933917 88.2443548,29.1467637 88.9715668,28.8535032 C89.6987789,28.5602427 90.0623794,28.1203586 90.0623794,27.5338376 L90.0623794,17.3284236 C90.0623794,16.7419026 89.6987789,16.3020185 88.9715668,16.008758 C88.2443548,15.7154975 87.3571695,15.5688694 86.3099842,15.5688694 C85.2627989,15.5688694 84.3756136,15.7154975 83.6484015,16.008758 C82.9211895,16.3020185 82.557589,16.7419026 82.557589,17.3284236 L82.557589,27.5338376 Z M79.0669888,28.1496815 L79.0669888,16.7125796 C79.0669888,15.1641642 80.1548816,13.9559491 82.3307,13.0878981 C83.5058746,12.6304117 84.8322894,12.401672 86.3099842,12.401672 C87.787679,12.401672 89.1140938,12.6304117 90.2892684,13.0878981 C92.4650868,13.9559491 93.5529796,15.1641642 93.5529796,16.7125796 L93.5529796,28.1496815 C93.5529796,29.6980969 92.4650868,30.906312 90.2892684,31.7743631 C89.1140938,32.2318494 87.787679,32.4605892 86.3099842,32.4605892 C84.8322894,32.4605892 83.5058746,32.2318494 82.3307,31.7743631 C80.1548816,30.906312 79.0669888,29.6980969 79.0669888,28.1496815 Z M101.399986,28.9414809 L106.374091,28.9414809 C107.53763,28.9414809 108.60807,28.7479319 109.585443,28.360828 C110.993326,27.7977679 111.697256,27.1115486 111.697256,26.3021497 L111.697256,11.3459395 C111.697256,10.5365405 110.993326,9.85032129 109.585443,9.28726115 C108.619706,8.9001573 107.549266,8.70660828 106.374091,8.70660828 L101.399986,8.70660828 L101.399986,28.9414809 Z M97.9093855,32.1086783 L97.9093855,6.4191879 L99.7594036,5.53941083 L106.374091,5.53941083 C108.131035,5.53941083 109.74833,5.85026228 111.226025,6.47197452 C113.867259,7.57463396 115.187857,9.19927271 115.187857,11.3459395 L115.187857,26.3021497 C115.187857,28.4488165 113.867259,30.0734552 111.226025,31.1761146 C109.74833,31.7978269 108.131035,32.1086783 106.374091,32.1086783 L97.9093855,32.1086783 Z M123.034863,27.5338376 C123.034863,28.1203586 123.398463,28.5602427 124.125675,28.8535032 C124.852887,29.1467637 125.740073,29.2933917 126.787258,29.2933917 C127.834443,29.2933917 128.721629,29.1467637 129.448841,28.8535032 C130.176053,28.5602427 130.539653,28.1203586 130.539653,27.5338376 L130.539653,17.3284236 C130.539653,16.7419026 130.176053,16.3020185 129.448841,16.008758 C128.721629,15.7154975 127.834443,15.5688694 126.787258,15.5688694 C125.740073,15.5688694 124.852887,15.7154975 124.125675,16.008758 C123.398463,16.3020185 123.034863,16.7419026 123.034863,17.3284236 L123.034863,27.5338376 Z M119.544262,28.1496815 L119.544262,16.7125796 C119.544262,15.1641642 120.632155,13.9559491 122.807974,13.0878981 C123.983148,12.6304117 125.309563,12.401672 126.787258,12.401672 C128.264953,12.401672 129.591367,12.6304117 130.766542,13.0878981 C132.94236,13.9559491 134.030253,15.1641642 134.030253,16.7125796 L134.030253,28.1496815 C134.030253,29.6980969 132.94236,30.906312 130.766542,31.7743631 C129.591367,32.2318494 128.264953,32.4605892 126.787258,32.4605892 C125.309563,32.4605892 123.983148,32.2318494 122.807974,31.7743631 C120.632155,30.906312 119.544262,29.6980969 119.544262,28.1496815 Z M152,24.3138535 L152,28.1496815 C152,29.6980969 150.912107,30.906312 148.736289,31.7743631 C147.561114,32.2318494 146.234699,32.4605892 144.757005,32.4605892 C143.27931,32.4605892 141.952895,32.2318494 140.77772,31.7743631 C138.601902,30.906312 137.514009,29.6980969 137.514009,28.1496815 L137.514009,16.7125796 C137.514009,15.1641642 138.601902,13.9559491 140.77772,13.0878981 C141.952895,12.6304117 143.27931,12.401672 144.757005,12.401672 C146.234699,12.401672 147.561114,12.6304117 148.736289,13.0878981 C150.912107,13.9559491 152,15.1641642 152,16.7125796 L152,18.9648089 L148.68393,20.5484076 L148.5094,20.5484076 L148.5094,17.3284236 C148.5094,16.7419026 148.145799,16.3020185 147.418587,16.008758 C146.691375,15.7154975 145.80419,15.5688694 144.757005,15.5688694 C143.709819,15.5688694 142.822634,15.7154975 142.095422,16.008758 C141.36821,16.3020185 141.004609,16.7419026 141.004609,17.3284236 L141.004609,27.5338376 C141.004609,28.1203586 141.36821,28.5602427 142.095422,28.8535032 C142.822634,29.1467637 143.709819,29.2933917 144.757005,29.2933917 C145.80419,29.2933917 146.691375,29.1467637 147.418587,28.8535032 C148.145799,28.5602427 148.5094,28.1203586 148.5094,27.5338376 L148.5094,25.8974522 L151.82547,24.3138535 L152,24.3138535 Z" id="GroDoc" stroke="#00B420" stroke-width="0.701947266" fill="#00B420"></path>
                    <g id="GroDoc-Logo-Icon">
                        <path d="M30.0628187,18.9974417 L36.9577379,22.8238869 C37.3219299,23.0260011 37.4544266,23.4843596 37.2542432,23.8496165 L32.703149,32.1535969 C32.7015846,32.1564415 32.7015846,32.1564415 32.7000041,32.1592772 C32.4959318,32.5241689 32.0346954,32.6545388 31.6698038,32.4504665 L24.4403083,28.4072411 L24.4403083,36.7753242 C24.4403083,37.1934049 24.101387,37.5323262 23.6833064,37.5323262 L13.9982988,37.5323262 C13.5802182,37.5323262 13.2412968,37.1934049 13.2412968,36.7753242 L13.2412968,28.3010758 L5.91169627,32.3502964 C5.90628068,32.353269 5.90628068,32.353269 5.90083307,32.3561826 C5.53163221,32.5523512 5.07330966,32.4120809 4.87714101,32.04288 L0.520201208,23.842865 C0.326560489,23.4784218 0.460510785,23.0260317 0.821357752,22.8257694 L7.71033785,19.0025334 L0.731870266,15.1786589 C0.727307716,15.1761453 0.727307716,15.1761453 0.722768421,15.1735898 C0.358922705,14.9676585 0.230907802,14.5057629 0.436837642,14.1419198 L5.07999456,5.93812213 C5.2860202,5.57428558 5.74793312,5.44633331 6.11176009,5.65235355 L13.2412968,9.6895839 L13.2412968,1.22467578 C13.2412968,0.806595147 13.5802182,0.467673828 13.9982988,0.467673828 L23.6833064,0.467673828 C24.101387,0.467673828 24.4403083,0.806595147 24.4403083,1.22467578 L24.4403083,9.69892423 L31.7699089,5.64970359 C31.7753245,5.64673096 31.7753245,5.64673096 31.7807721,5.64381744 C32.149973,5.44764878 32.6082955,5.5879191 32.8044642,5.95711996 L37.1621671,14.1585712 C37.3550504,14.5215889 37.222971,14.9721954 36.8646347,15.1736425 L30.0628187,18.9974417 Z" id="Shape-outline" stroke="#00B420" stroke-width="0.908402344" fill="#00B420"></path>
                        <rect id="Rectangle-Copy-3" fill="#FFFFFF" transform="translate(18.827411, 19.000000) rotate(-61.000000) translate(-18.827411, -19.000000) " x="18.0203046" y="2.140625" width="1.6142132" height="33.71875" rx="0.706535156"></rect>
                        <rect id="Rectangle-Copy-2" fill="#FFFFFF" transform="translate(18.827411, 19.000000) rotate(61.000000) translate(-18.827411, -19.000000) " x="18.0203046" y="2.140625" width="1.6142132" height="33.71875" rx="0.706535156"></rect>
                        <path d="M20.6434463,1.328125 L20.6434463,36.671875" id="Line-3" stroke="#00B420" stroke-width="2.01867187" stroke-linecap="square"></path>
                        <path d="M17.0114666,1.4296875 L17.0114666,36.7734375" id="Line-2" stroke="#00B420" stroke-width="2.01867187" stroke-linecap="square"></path>
                        <rect id="Rectangle" fill="#FFFFFF" x="18.0203046" y="2.140625" width="1.6142132" height="33.71875" rx="0.706535156"></rect>
                    </g>
                </g>
            </g>
        </g>
    </g>
</svg>