<svg xmlns="http://www.w3.org/2000/svg" width="42" height="32" viewBox="0 0 42 32">
    <path fill="#FFF" fill-rule="nonzero" d="M30.074 7.74c2.251 1.41 3.83 3.798 4.117 6.569a7.104 7.104 0 0 0 3.017.675 7.137 7.137 0 1 0 0-14.273 7.138 7.138 0 0 0-7.134 7.029zm-5.096 14.89a7.136 7.136 0 1 0-.001-14.272 7.136 7.136 0 0 0 0 14.272zm3.363.51h-6.217c-5.172 0-9.38 4.108-9.38 9.156v7.42l.019.117.523.16C18.223 41.498 22.512 42 26.042 42c6.894 0 10.89-1.919 11.137-2.04l.49-.242h.052v-7.422c.001-5.048-4.207-9.156-9.38-9.156zm11.716-7.137h-6.174c-.067 2.412-1.121 4.585-2.79 6.147 4.602 1.336 7.97 5.502 7.97 10.424v2.29c6.095-.218 9.608-1.905 9.84-2.019l.489-.242h.052V25.17c0-5.054-4.211-9.167-9.387-9.167zm-27.823-1.019a7.09 7.09 0 0 0 3.796-1.102 8.833 8.833 0 0 1 3.32-5.633c.007-.134.02-.266.02-.4a7.137 7.137 0 1 0-7.136 7.135zm6.626 6.67a8.813 8.813 0 0 1-2.754-6.126c-.226-.017-.45-.034-.68-.034H9.277C4.162 15.494 0 19.616 0 24.683v7.45l.02.114.517.162c3.916 1.21 7.412 1.77 10.448 1.945v-2.25c.001-4.933 3.327-9.109 7.875-10.45z" opacity=".7"/>
</svg>
