<?xml version="1.0" encoding="UTF-8"?>
<svg width="17px" height="17px" viewBox="0 0 17 17" version="1.1" xmlns="http://www.w3.org/2000/svg" xmlns:xlink="http://www.w3.org/1999/xlink">
    <!-- Generator: sketchtool 53.2 (72643) - https://sketchapp.com -->
    <title>00D4C4B8-F00E-43A5-AA3C-1BAFEDDE64ED</title>
    <desc>Created with sketchtool.</desc>
    <g id="Report" stroke="none" stroke-width="1" fill="none" fill-rule="evenodd" opacity="0.65">
        <g id="17" transform="translate(-688.000000, -295.000000)" fill="#FC6E51">
            <g id="Group-3-Copy-2" transform="translate(610.000000, 288.000000)">
                <path d="M94.3214444,12.1893213 C94.7729444,13.2420103 95,14.337584 95,15.4906615 C95,16.6439614 94.77275,17.7488458 94.3214722,18.8015626 C93.425,20.8920993 91.9019444,22.4221337 89.7949167,23.321294 C88.7419722,23.7704573 87.6385,24 86.4860278,24 C85.3335556,24 84.2386111,23.7728475 83.1864722,23.321294 C81.0970833,22.4243294 79.5670833,20.8956568 78.6692222,18.8015626 C78.2193056,17.7522087 78,16.6439614 78,15.4906615 C78,14.337584 78.2193056,13.2384528 78.6692222,12.1893213 C79.5670833,10.0952271 81.0968889,8.57567063 83.1864722,7.6789283 C84.2384167,7.22737483 85.3335833,7 86.4860278,7 C87.6386667,7 88.7419722,7.22954269 89.7950833,7.6789283 C91.9021111,8.57806083 93.4251667,10.0985901 94.3214444,12.1893213 Z M92.9645556,19.2479744 C93.6357778,18.0958418 93.9681111,16.8392075 93.9681111,15.4906615 C93.9681111,14.1421712 93.6335833,12.8960148 92.9643611,11.752248 C92.2951389,10.6082866 91.383,9.69903738 90.2317222,9.02744644 C89.0873889,8.35982991 87.8338056,8.02295051 86.4860278,8.02295051 C85.1384722,8.02295051 83.8928056,8.3578566 82.7498611,9.02744644 C81.6067222,9.69706407 80.6924167,10.6063411 80.0265556,11.7522758 C79.3630556,12.8940415 79.0319167,14.1421712 79.0319167,15.4906893 C79.0319167,16.5044959 79.2230556,17.4826163 79.6174722,18.401593 C80.0130556,19.3239327 80.5420833,20.126679 81.20675,20.7917108 C81.8714167,21.456548 82.6659722,21.9821144 83.5862222,22.3818894 C84.5065,22.781859 85.4731667,22.9770773 86.4862222,22.9770773 C87.8338056,22.9770773 89.0876111,22.6403924 90.2319167,21.9727759 C91.3831944,21.3012128 92.2973056,20.3929085 92.9645556,19.2479744 Z M87.0251667,15.4162874 L89.62775,18.0389217 C89.8274167,18.2401155 89.8414722,18.5504247 89.62775,18.7642922 C89.4419167,18.9503665 89.0980833,18.9503665 88.9121111,18.7642922 L86.1328611,15.98371 C86.0214167,15.8720098 85.9748056,15.7325165 85.9934444,15.5650913 C85.9934444,15.5372983 85.9748056,15.5 85.9748056,15.4906615 L85.9748056,10.5989481 C85.9748056,10.3106787 86.2165278,10.0781622 86.486,10.0781622 C86.7741389,10.0781622 87.0251667,10.3106787 87.0251667,10.5989481 L87.0251667,15.4162874 Z" id="ic_clock"></path>
            </g>
        </g>
    </g>
</svg>