<?xml version="1.0" encoding="UTF-8"?>
<svg width="17px" height="17px" viewBox="0 0 17 17" version="1.1" xmlns="http://www.w3.org/2000/svg" xmlns:xlink="http://www.w3.org/1999/xlink">
    <!-- Generator: sketchtool 53.2 (72643) - https://sketchapp.com -->
    <title>7EAE537D-4356-4DA2-9972-D632D680A4FE</title>
    <desc>Created with sketchtool.</desc>
    <g id="Report" stroke="none" stroke-width="1" fill="none" fill-rule="evenodd">
        <g id="17" transform="translate(-878.000000, -225.000000)" fill="#FFFFFF">
            <g id="Group-2" transform="translate(867.000000, 218.000000)">
                <path d="M15.5410608,15.1492131 L13.8878915,17.794281 C13.8528622,17.8503611 13.834202,17.9151404 13.8340692,17.981281 C13.8336708,18.1768807 13.9919169,18.3357577 14.1875166,18.3361561 C14.3100361,18.3362557 14.4238897,18.2730038 14.4885694,18.1689783 L15.9584859,15.8170925 L17.4288728,18.1697088 C17.4935858,18.2732362 17.6070741,18.3361561 17.7291952,18.3361561 C17.7951366,18.3360565 17.8597499,18.3175624 17.9157636,18.2827655 C18.0818789,18.1794705 18.1328125,17.9610935 18.0295507,17.7949783 L16.3759264,15.1491824 L18.0302148,12.5022992 C18.034498,12.4959242 18.0385488,12.4894164 18.0424003,12.4827758 C18.1404824,12.3135726 18.0828086,12.0968557 17.9135722,11.9987737 C17.744369,11.9006916 17.5276522,11.9583655 17.4295701,12.1276018 L15.9585032,14.4813061 L14.4878721,12.1282991 C14.4840205,12.1216585 14.4799698,12.1151507 14.4756866,12.1087757 C14.3668135,11.9462795 14.1468095,11.9027834 13.9843134,12.0116565 C13.8218173,12.1205296 13.7783212,12.3405335 13.8871942,12.5030297 L15.5410608,15.1492131 Z M20.9166628,11.2527989 L20.9166628,12.6694438 L23.0416965,12.6694438 L23.0416965,11.2527989 L20.9166628,11.2527989 Z M20.9166628,10.5444432 L23.0416965,10.5444432 L23.0416965,9.12779837 L20.9166628,9.12779837 L20.9166628,10.5444432 Z M27.2916976,11.2527989 L23.7500521,11.2527989 L23.7500521,12.6694438 L27.2916976,12.6694438 L27.2916976,11.2527989 Z M27.2916976,10.5444432 L27.2916976,9.12779837 L23.7500521,9.12779837 L23.7500521,10.5444432 L27.2916976,10.5444432 Z M20.9166628,13.3777994 L20.9166628,14.7944443 L23.0416965,14.7944443 L23.0416965,13.3777994 L20.9166628,13.3777994 Z M27.2916976,13.3777994 L23.7500521,13.3777994 L23.7500521,14.7944443 L27.2916976,14.7944443 L27.2916976,13.3777994 Z M20.9166628,15.5027999 L20.9166628,16.9194448 L23.0416965,16.9194448 L23.0416965,15.5027999 L20.9166628,15.5027999 Z M27.2916976,15.5027999 L23.7500521,15.5027999 L23.7500521,16.9194448 L27.2916976,16.9194448 L27.2916976,15.5027999 Z M20.9166628,17.6278005 L20.9166628,19.0444454 L23.0416965,19.0444454 L23.0416965,17.6278005 L20.9166628,17.6278005 Z M27.2916976,17.6278005 L23.7500521,17.6278005 L23.7500521,19.0444454 L27.2916976,19.0444454 L27.2916976,17.6278005 Z M20.9166628,19.752801 L20.9166628,21.1694459 L23.0416965,21.1694459 L23.0416965,19.752801 L20.9166628,19.752801 Z M27.2916976,19.752801 L23.7500521,19.752801 L23.7500521,21.1694459 L27.2916976,21.1694459 L27.2916976,19.752801 Z M23.400774,8.41947592 L27.6458422,8.41947592 C27.8414418,8.41947592 28.00002,8.57805409 28.00002,8.77365375 L28.00002,21.5236569 C28.00002,21.7192566 27.841475,21.8778015 27.6458754,21.8778015 L20.9166628,21.8778015 L20.9166628,22.9403682 C20.9166628,22.9583311 20.9152682,22.976294 20.9125456,22.9940577 C20.8828288,23.1873663 20.7020045,23.3199796 20.5086627,23.2902628 L11.3003381,21.8735847 C11.1276154,21.8470222 11.0000822,21.698405 11.0000158,21.5236569 L11.0000158,9.48197619 C10.9984552,9.3156949 11.1128068,9.17073002 11.2748713,9.1334761 L20.4831959,7.00847557 C20.5888482,6.98493455 20.6994811,7.01103222 20.7835182,7.07929786 C20.8679538,7.14673342 20.9169948,7.24896587 20.9166628,7.35697566 L20.9166628,8.41947592 L23.3909747,8.41947592 C23.3926052,8.41945381 23.3942385,8.41944272 23.3958743,8.41944272 C23.3975102,8.41944272 23.3991434,8.41945381 23.400774,8.41947592 Z" id="ic_csv"></path>
            </g>
        </g>
    </g>
</svg>