<?xml version="1.0" encoding="UTF-8"?>
<svg width="17px" height="17px" viewBox="0 0 17 17" version="1.1" xmlns="http://www.w3.org/2000/svg" xmlns:xlink="http://www.w3.org/1999/xlink">
    <!-- Generator: sketchtool 53.2 (72643) - https://sketchapp.com -->
    <title>13F0F103-EB8D-4407-B449-76739CC577F9</title>
    <desc>Created with sketchtool.</desc>
    <g id="Report" stroke="none" stroke-width="1" fill="none" fill-rule="evenodd" opacity="0.65">
        <g id="17" transform="translate(-413.000000, -295.000000)" fill="#FC6E51">
            <path d="M428.583687,296.59375 C429.366219,296.59375 430,297.227531 430,298.010063 L430,310.583156 C430,311.365687 429.366219,312 428.583687,312 L414.416844,312 C413.634313,312 413,311.365687 413,310.583156 L413,298.010063 C413,297.227531 413.634313,296.59375 414.416844,296.59375 L416.71875,296.59375 L416.71875,295.53125 C416.71875,295.237469 416.95675,295 417.25,295 C417.54325,295 417.78125,295.237469 417.78125,295.53125 L417.78125,296.59375 L420.96875,296.59375 L420.96875,295.53125 C420.96875,295.237469 421.20675,295 421.5,295 C421.79325,295 422.03125,295.237469 422.03125,295.53125 L422.03125,296.59375 L425.21875,296.59375 L425.21875,295.53125 C425.21875,295.237469 425.456219,295 425.75,295 C426.043781,295 426.28125,295.237469 426.28125,295.53125 L426.28125,296.59375 L428.583687,296.59375 Z M428.9375,310.583156 L428.9375,298.010063 C428.9375,297.815094 428.778656,297.65625 428.583687,297.65625 L426.28125,297.65625 L426.28125,298.71875 C426.28125,299.012531 426.043781,299.25 425.75,299.25 C425.456219,299.25 425.21875,299.012531 425.21875,298.71875 L425.21875,297.65625 L422.03125,297.65625 L422.03125,298.71875 C422.03125,299.012531 421.79325,299.25 421.5,299.25 C421.20675,299.25 420.96875,299.012531 420.96875,298.71875 L420.96875,297.65625 L417.78125,297.65625 L417.78125,298.71875 C417.78125,299.012531 417.54325,299.25 417.25,299.25 C416.95675,299.25 416.71875,299.012531 416.71875,298.71875 L416.71875,297.65625 L414.416844,297.65625 C414.221344,297.65625 414.0625,297.815094 414.0625,298.010063 L414.0625,310.583156 C414.0625,310.778656 414.221344,310.9375 414.416844,310.9375 L428.583687,310.9375 C428.778656,310.9375 428.9375,310.778656 428.9375,310.583156 Z M416.71875,301.375 L418.84375,301.375 L418.84375,302.96875 L416.71875,302.96875 L416.71875,301.375 Z M416.71875,304.03125 L418.84375,304.03125 L418.84375,305.625 L416.71875,305.625 L416.71875,304.03125 Z M416.71875,306.6875 L418.84375,306.6875 L418.84375,308.28125 L416.71875,308.28125 L416.71875,306.6875 Z M420.4375,306.6875 L422.5625,306.6875 L422.5625,308.28125 L420.4375,308.28125 L420.4375,306.6875 Z M420.4375,304.03125 L422.5625,304.03125 L422.5625,305.625 L420.4375,305.625 L420.4375,304.03125 Z M420.4375,301.375 L422.5625,301.375 L422.5625,302.96875 L420.4375,302.96875 L420.4375,301.375 Z M424.15625,306.6875 L426.28125,306.6875 L426.28125,308.28125 L424.15625,308.28125 L424.15625,306.6875 Z M424.15625,304.03125 L426.28125,304.03125 L426.28125,305.625 L424.15625,305.625 L424.15625,304.03125 Z M424.15625,301.375 L426.28125,301.375 L426.28125,302.96875 L424.15625,302.96875 L424.15625,301.375 Z" id="ic_calendar"></path>
        </g>
    </g>
</svg>