<svg xmlns="http://www.w3.org/2000/svg" width="14" height="14" viewBox="0 0 14 14">
    <path fill="#4A4A4A" fill-rule="nonzero" d="M7.317 3.392A.327.327 0 0 1 7 3.064V.199C7 .09 7.09 0 7.2 0c1.816 0 3.524.707 4.808 1.992A6.756 6.756 0 0 1 14 6.8a.2.2 0 0 1-.2.199h-2.864a.327.327 0 0 1-.328-.317 3.411 3.411 0 0 0-.875-2.166 3.382 3.382 0 0 0-2.416-1.125zm.081-2.99v2.594A3.776 3.776 0 0 1 10.03 4.25a3.81 3.81 0 0 1 .975 2.352h2.594a6.41 6.41 0 0 0-6.2-6.2zm-.344 7.221l1.539-1.832a.231.231 0 0 0 .049-.145.23.23 0 0 0-.05-.146.154.154 0 0 0-.119-.06.154.154 0 0 0-.121.062l-.652.776c-.07.084-.184.082-.253-.005a.256.256 0 0 1 .003-.31l.651-.775A.48.48 0 0 1 8.473 5a.48.48 0 0 1 .373.19c.1.121.154.283.154.456a.722.722 0 0 1-.154.457l-.002.002-1.54 1.833A.163.163 0 0 1 7.179 8a.164.164 0 0 1-.128-.067.256.256 0 0 1 .003-.31zM8 8.5a.5.5 0 1 1 1.001.001A.5.5 0 0 1 8 8.5zm.721 0a.222.222 0 1 0-.443 0 .222.222 0 0 0 .443 0zM6.758 3.003a.207.207 0 0 1 .24.164.2.2 0 0 1-.171.23c-1.977.316-3.412 1.946-3.412 3.877 0 .88.295 1.71.854 2.404a.194.194 0 0 1-.037.28.212.212 0 0 1-.291-.035A4.184 4.184 0 0 1 3 7.273c0-1.03.383-2.03 1.08-2.812a4.553 4.553 0 0 1 2.678-1.458zm7.059 4.514a.206.206 0 0 1 .182.227 7.007 7.007 0 0 1-2.276 4.447A7.004 7.004 0 0 1 7.02 14a6.973 6.973 0 0 1-4.964-2.057A6.978 6.978 0 0 1 0 6.978c0-1.735.638-3.4 1.795-4.69A7.006 7.006 0 0 1 6.214 0a.206.206 0 0 1 .047.41A6.603 6.603 0 0 0 .41 6.977a6.617 6.617 0 0 0 6.61 6.61A6.595 6.595 0 0 0 13.59 7.7a.206.206 0 0 1 .227-.183zm-8.65.31l.002-.002L6.67 6.066c.077-.09.2-.088.274.005a.269.269 0 0 1-.004.33L5.44 8.16a.253.253 0 0 0 0 .31c.035.041.081.064.13.064a.167.167 0 0 0 .129-.064l.002-.003.478-.56c.077-.09.2-.087.274.005a.269.269 0 0 1-.004.33l-.477.56A.522.522 0 0 1 5.57 9a.522.522 0 0 1-.403-.201.791.791 0 0 1 0-.972zM5.5 5a.5.5 0 1 1-.001 1.001A.5.5 0 0 1 5.5 5zm0 .721a.222.222 0 1 0 0-.443.222.222 0 0 0 0 .443zm-1.45 4.811a.182.182 0 0 1 .273-.016c.7.684 1.602 1.06 2.542 1.06 1.837 0 3.414-1.431 3.751-3.403.02-.115.12-.19.226-.17.105.022.174.133.155.248C10.626 10.423 8.888 12 6.865 12c-1.035 0-2.03-.415-2.8-1.169a.226.226 0 0 1-.016-.299z"/>
</svg>
