<svg xmlns="http://www.w3.org/2000/svg" width="16" height="16" viewBox="0 0 16 16">
    <path fill="#B90207" fill-rule="nonzero" d="M8.139 3.99a.385.385 0 0 1-.373-.386V.234C7.766.104 7.87 0 8 0c2.137 0 4.146.832 5.657 2.343A7.948 7.948 0 0 1 16 8c0 .13-.105.234-.234.234h-3.37a.385.385 0 0 1-.386-.373 4.013 4.013 0 0 0-1.03-2.547A3.978 3.978 0 0 0 8.14 3.99zM8.234.472v3.053A4.441 4.441 0 0 1 11.33 5a4.483 4.483 0 0 1 1.146 2.766h3.053A7.54 7.54 0 0 0 8.234.472zm-.499 8.093l2.013-1.956a.22.22 0 0 0 0-.31.22.22 0 0 0-.315.002l-.853.828a.234.234 0 1 1-.327-.336l.852-.828c.13-.129.303-.2.486-.2.184 0 .357.072.488.202a.685.685 0 0 1-.002.977L8.061 8.901a.234.234 0 0 1-.332-.005.234.234 0 0 1 .005-.331zm.637.952a.842.842 0 0 1 1.682 0 .842.842 0 0 1-1.682 0zm1.214 0a.373.373 0 1 0-.746 0 .373.373 0 0 0 .746 0zM7.159 2.98a.234.234 0 0 1 .077.463A4.601 4.601 0 0 0 3.38 8c0 1.033.333 2.01.964 2.825a.234.234 0 1 1-.37.287A5.04 5.04 0 0 1 2.912 8 5.089 5.089 0 0 1 7.16 2.981zm8.586 5.634c.129.014.222.13.208.258a7.982 7.982 0 0 1-2.593 5.066A7.983 7.983 0 0 1 8 16a7.948 7.948 0 0 1-5.657-2.343A7.948 7.948 0 0 1 0 8c0-1.976.727-3.874 2.046-5.343A7.984 7.984 0 0 1 7.081.052a.234.234 0 1 1 .054.466A7.523 7.523 0 0 0 .469 8c0 4.153 3.378 7.531 7.531 7.531a7.515 7.515 0 0 0 7.487-6.709.234.234 0 0 1 .258-.207zm-9.824.443l.003-.002L7.74 7.29a.234.234 0 1 1 .326.336L6.252 9.391a.22.22 0 0 0 .313.31l.002-.002.579-.561a.234.234 0 1 1 .326.336l-.577.56a.685.685 0 0 1-.974-.001.69.69 0 0 1 0-.975zm.866-3.416a.842.842 0 0 1 0 1.682.842.842 0 0 1 0-1.682zm0 1.214a.373.373 0 1 0-.001-.746.373.373 0 0 0 0 .746zm-2.195 4.608a.234.234 0 0 1 .331-.018 4.618 4.618 0 0 0 7.617-2.592.234.234 0 1 1 .461.085 5.087 5.087 0 0 1-8.39 2.856.234.234 0 0 1-.019-.33z"/>
</svg>
