<svg xmlns="http://www.w3.org/2000/svg" width="27" height="27" viewBox="0 0 27 27">
    <defs>
        <linearGradient id="a" x1="50%" x2="50%" y1="0%" y2="100%">
            <stop offset="0%" stop-color="#FD1730"/>
            <stop offset="100%" stop-color="#9E101F"/>
        </linearGradient>
    </defs>
    <path fill="url(#a)" fill-rule="evenodd" stroke="url(#a)" stroke-width=".2" d="M540.985 18.31h-.577c-.475.004-.684.168-.772.632-.052.27-.082.543-.115.815-.076.632-.406 1.06-1.024 1.259-.3.096-.6.186-.897.29-.38.133-.528.394-.451.782.062.316.13.63.197.946.127.586-.066 1.056-.534 1.424-.227.179-.462.348-.69.526-.37.288-.427.6-.182 1.003.162.266.34.523.495.793.28.487.281.977-.018 1.46-.158.254-.324.505-.48.76-.24.393-.195.676.164.975.24.2.5.378.74.578.443.37.63.833.506 1.405-.066.303-.128.607-.19.91-.085.412.058.67.457.81.285.099.574.187.861.279.634.202.968.64 1.048 1.284.038.307.08.615.136.92.064.344.296.512.64.516.315.004.63-.015.944-.024.596-.019 1.059.207 1.357.726.161.28.306.57.47.849.223.377.506.472.921.317.26-.098.523-.194.773-.312.573-.272 1.082-.145 1.552.227.235.187.452.397.681.592.378.319.696.317 1.065-.003.209-.182.418-.363.624-.547.445-.4.955-.496 1.517-.304.297.101.584.232.879.34.407.152.66.068.888-.306.18-.297.334-.61.511-.908.292-.493.749-.69 1.309-.682.291.005.581.026.871.03.464.006.704-.192.768-.634.036-.248.061-.497.088-.746.074-.684.408-1.16 1.102-1.355.267-.076.532-.161.794-.252.425-.149.568-.4.48-.832-.053-.257-.11-.513-.168-.77-.147-.67.015-1.227.602-1.637.218-.151.424-.319.632-.482.34-.267.4-.494.198-.871-.148-.274-.32-.535-.49-.796-.351-.54-.343-1.077-.004-1.617.166-.264.34-.522.5-.79.19-.324.146-.588-.142-.828a8.226 8.226 0 0 0-.688-.528c-.604-.403-.75-.962-.604-1.631.053-.245.103-.49.155-.735.1-.476-.042-.728-.503-.882a26.768 26.768 0 0 0-.76-.24c-.632-.191-.993-.613-1.092-1.253a17.882 17.882 0 0 1-.085-.638c-.084-.724-.224-.835-.974-.837-.398 0-.8.075-1.193-.032-.637-.173-.867-.717-1.135-1.227-.393-.747-.558-.863-1.3-.495-1.072.531-1.905.323-2.685-.524-.463-.503-.801-.507-1.25-.006-.79.88-1.647 1.05-2.716.507-.671-.341-.872-.224-1.239.442-.046.083-.105.162-.141.25-.352.838-.96 1.239-1.826 1.077zm13.242 19.031c-.169 0-.339.005-.508 0-.324-.011-.554.121-.703.409-.148.287-.303.57-.466.849-.364.626-1.02.866-1.707.623-.295-.105-.583-.231-.876-.343-.331-.126-.63-.11-.893.169-.182.19-.392.356-.591.53-.64.563-1.341.563-1.985-.001-.209-.183-.413-.37-.62-.554-.26-.231-.545-.279-.87-.141-.289.122-.58.239-.875.343-.665.236-1.332-.003-1.688-.605-.17-.288-.321-.587-.482-.88-.154-.278-.385-.416-.712-.4a19.9 19.9 0 0 1-.909.022c-.826.003-1.368-.468-1.475-1.275-.01-.083-.04-.167-.035-.248.044-.853-.43-1.224-1.221-1.392-1.048-.223-1.462-1.017-1.16-1.966.057-.18.06-.379.116-.56.12-.388-.007-.673-.33-.9-.227-.16-.443-.334-.662-.504-.608-.473-.744-1.151-.357-1.813.158-.269.325-.531.5-.79.19-.282.185-.552-.003-.833a13.83 13.83 0 0 1-.497-.79c-.38-.662-.26-1.305.336-1.79.242-.199.495-.385.744-.574.268-.203.362-.462.286-.789a15.892 15.892 0 0 1-.202-.982c-.109-.654.202-1.217.827-1.47.334-.135.682-.238 1.028-.343.297-.09.473-.266.507-.58.032-.297.084-.591.126-.887.106-.75.635-1.224 1.4-1.239.314-.006.63.003.944.021.372.021.622-.13.784-.46.137-.277.287-.55.445-.818.357-.604 1.019-.843 1.687-.609.284.1.563.216.841.33.357.147.674.133.958-.165.19-.199.405-.378.616-.556.603-.507 1.31-.507 1.908.002.23.195.447.403.674.601.248.217.529.27.84.144.291-.116.58-.238.875-.344.7-.252 1.368-.008 1.735.632.149.26.292.522.428.787.165.322.414.481.788.457.302-.02.606-.025.909-.023.761.006 1.282.44 1.411 1.179.054.306.088.615.136.922.046.293.194.507.496.6.312.094.624.188.931.297.74.264 1.079.881.924 1.645-.317 1.558-.413 1.239.832 2.21.58.452.733 1.109.378 1.749-.168.303-.36.593-.549.885a.645.645 0 0 0-.007.74c.174.286.358.567.525.857.357.618.243 1.278-.307 1.74-.258.218-.534.413-.798.622-.248.197-.349.443-.272.76.074.302.128.608.187.913.145.751-.196 1.348-.926 1.607-.306.11-.617.206-.93.298-.301.09-.461.28-.495.59-.03.273-.079.544-.121.815-.14.89-.65 1.313-1.562 1.294-.11-.002-.219 0-.328 0v-.018zm-6.88-19.32c4.86-.055 8.948 3.417 9.655 8.072.04.255-.014.447-.273.495-.26.049-.397-.117-.436-.366-.169-1.084-.507-2.115-1.076-3.059-1.499-2.482-3.682-3.973-6.603-4.349-4.732-.608-9.125 2.634-9.883 7.379-.04.246-.143.429-.408.4-.287-.033-.354-.251-.313-.51.642-3.99 3.672-7.227 7.822-7.924a8.793 8.793 0 0 1 1.515-.137zm.228 18.956c-4.719.016-8.819-3.35-9.561-8.018-.052-.33.072-.569.326-.573.299-.005.354.214.393.46.617 3.786 3.524 6.662 7.383 7.311 4.63.78 9.252-2.389 10.126-6.94.03-.165.05-.331.084-.495.043-.207.159-.37.392-.329.227.041.34.19.298.447-.513 3.116-2.176 5.455-4.944 7.003a8.849 8.849 0 0 1-4.497 1.134zm-2.813-3.926c-.441-.01-.64-.388-.424-.817l3.72-7.365 1.36-2.692c.234-.465.439-.56.806-.373.33.167.385.427.168.855-1.21 2.389-2.423 4.777-3.635 7.165-.488.96-.98 1.917-1.459 2.88-.116.234-.277.351-.536.347zm.3-8.004h.006V23.97c0-.036-.004-.072-.007-.107-.048-.466-.342-.697-.884-.696-.525 0-.856.25-.868.712-.02.764-.02 1.53-.001 2.294.011.49.34.731.924.737.474.005.801-.266.826-.717.02-.382.004-.765.004-1.147zm1.056.023c0 .334.008.669-.002 1.003-.033 1.145-.712 1.776-1.877 1.75a6.126 6.126 0 0 1-.543-.036c-.814-.092-1.336-.577-1.42-1.38-.091-.856-.068-1.72-.02-2.576.056-.962.611-1.476 1.603-1.562.35-.03.701-.01 1.045.072.646.152 1.07.612 1.17 1.263.015.094.035.189.036.284.004.394.001.788.001 1.182h.007zm5.27 4.789h-.003c0-.406.022-.813-.006-1.216-.034-.469-.374-.688-.974-.674-.447.01-.759.264-.77.688a44.33 44.33 0 0 0 0 2.326c.013.485.338.71.94.709.484 0 .785-.257.81-.725.019-.368.003-.739.003-1.108zm1.03 0c0 .43.033.862-.007 1.288-.074.789-.487 1.22-1.272 1.396a2.892 2.892 0 0 1-1.436-.034c-.622-.178-1.032-.59-1.093-1.241-.091-.963-.092-1.932.002-2.896.055-.552.375-.955.905-1.154a2.74 2.74 0 0 1 1.917-.016c.558.199.877.607.968 1.19.075.488.022.979.016 1.467z" transform="translate(-534 -14)"/>
</svg>
