<?xml version="1.0" encoding="UTF-8"?>
<svg width="16px" height="10px" viewBox="0 0 16 10" version="1.1" xmlns="http://www.w3.org/2000/svg" xmlns:xlink="http://www.w3.org/1999/xlink">
    <!-- Generator: sketchtool 53.2 (72643) - https://sketchapp.com -->
    <title>CA05C17A-E91E-4DCB-89A5-277A82D65B81</title>
    <desc>Created with sketchtool.</desc>
    <defs>
        <linearGradient x1="50%" y1="0%" x2="50%" y2="100%" id="linearGradient-1">
            <stop stop-color="#77DAFE" offset="0%"></stop>
            <stop stop-color="#42B3FC" offset="100%"></stop>
        </linearGradient>
    </defs>
    <g id="deals" stroke="none" stroke-width="1" fill="none" fill-rule="evenodd" opacity="0.652227493">
        <g id="1" transform="translate(-965.000000, -342.000000)" fill="url(#linearGradient-1)" fill-rule="nonzero">
            <g id="cell" transform="translate(284.000000, 322.000000)">
                <path d="M688.850679,20 C685.850767,20 683.130291,21.6412794 681.122855,24.3071539 C680.959048,24.5255629 680.959048,24.8306931 681.122855,25.0491021 C683.130291,27.7181885 685.850767,29.3594679 688.850679,29.3594679 C691.850591,29.3594679 694.571068,27.7181885 696.578504,25.052314 C696.74231,24.833905 696.74231,24.5287748 696.578504,24.3103658 C694.571068,21.6412794 691.850591,20 688.850679,20 Z M689.065876,27.9751403 C687.0745,28.1004043 685.430009,26.4591249 685.555273,24.4645369 C685.658054,22.8200456 686.990991,21.4871083 688.635482,21.3843276 C690.626858,21.2590636 692.27135,22.900343 692.146086,24.8949311 C692.040093,26.5362104 690.707156,27.8691477 689.065876,27.9751403 Z M688.966308,26.4527011 C687.893534,26.5201509 687.00705,25.6368793 687.077712,24.5641057 C687.132314,23.6776221 687.851779,22.9613691 688.738263,22.9035549 C689.811036,22.8361051 690.69752,23.7193767 690.626858,24.7921504 C690.569044,25.6818458 689.849579,26.3980989 688.966308,26.4527011 Z" id="ic_eye"></path>
            </g>
        </g>
    </g>
</svg>