<svg xmlns="http://www.w3.org/2000/svg" width="49" height="32" viewBox="0 0 49 32">
    <path fill="#DADADA" fill-rule="nonzero" d="M30.074 7.029c2.251 1.41 3.83 3.797 4.117 6.568a7.104 7.104 0 0 0 3.017.676 7.137 7.137 0 1 0 0-14.273 7.138 7.138 0 0 0-7.134 7.029zm-5.096 14.89a7.136 7.136 0 1 0-.001-14.273 7.136 7.136 0 0 0 0 14.273zm3.363.51h-6.217c-5.172 0-9.38 4.107-9.38 9.156v7.42l.019.116.523.16c4.937 1.506 9.226 2.008 12.756 2.008 6.894 0 10.89-1.919 11.137-2.041l.49-.242h.052v-7.421c.001-5.049-4.207-9.157-9.38-9.157zm11.716-7.137h-6.174c-.067 2.412-1.121 4.584-2.79 6.146 4.602 1.336 7.97 5.503 7.97 10.425v2.29c6.095-.219 9.608-1.906 9.84-2.02l.489-.242h.052V24.46c0-5.054-4.211-9.167-9.387-9.167zm-27.823-1.02a7.09 7.09 0 0 0 3.796-1.101 8.833 8.833 0 0 1 3.32-5.633c.007-.134.02-.266.02-.401a7.137 7.137 0 1 0-7.136 7.136zm6.626 6.672a8.813 8.813 0 0 1-2.754-6.127c-.226-.017-.45-.035-.68-.035H9.277C4.162 14.782 0 18.905 0 23.972v7.449l.02.115.517.161c3.916 1.212 7.412 1.77 10.448 1.946v-2.25c.001-4.933 3.327-9.109 7.875-10.45z" opacity=".7"/>
</svg>
