<svg xmlns="http://www.w3.org/2000/svg" width="28" height="32" viewBox="0 0 28 32">
    <path fill="#B5B5B5" fill-rule="evenodd" d="M10.773 26.721v1.083h5.542v-7.08h.932v8.011h-6.474V31.8L0 28.964V2.834L10.773 0v3.064h6.474v9.108h-.932V3.996h-5.542v1.082h4.46v8.368h4.01v-3.312l8.31 6.314-8.31 6.314v-3.311h-4.01v7.27h-4.46zm0-.932H14.3v-6.338h-2.286v-.466h-1.242v6.804zm0-19.78v7.902h1.242v-.465H14.3V6.01h-3.528zM.932 3.554v24.693l8.909 2.345V1.208L.93 3.553zm6.176 10.696c.91 0 1.65.74 1.65 1.65 0 .91-.74 1.651-1.65 1.651-.91 0-1.65-.74-1.65-1.65 0-.91.74-1.65 1.65-1.65z"/>
</svg>
