<svg xmlns="http://www.w3.org/2000/svg" width="30" height="26" viewBox="0 0 30 26">
    <g fill="none" fill-rule="evenodd">
        <path fill="#FFF" fill-rule="nonzero" d="M19.154 11.786c0-.367-.025-.728-.072-1.082l2.15-2.012c.405-.38.495-.99.217-1.471l-1.255-2.174a1.196 1.196 0 0 0-1.383-.546l-2.821.856a8.105 8.105 0 0 0-1.87-1.082l-.668-2.869a1.195 1.195 0 0 0-1.164-.924H9.776c-.555 0-1.038.383-1.164.924l-.668 2.869a8.104 8.104 0 0 0-1.87 1.082l-2.821-.856a1.195 1.195 0 0 0-1.383.546L.615 7.22a1.195 1.195 0 0 0 .218 1.47l2.15 2.013a8.153 8.153 0 0 0 0 2.164L.832 14.88c-.406.38-.497.99-.218 1.47l1.255 2.175c.278.481.85.708 1.383.546l2.821-.857c.569.44 1.197.806 1.87 1.083l.668 2.87c.126.54.609.924 1.164.924h2.511c.556 0 1.039-.383 1.165-.925l.667-2.869a8.104 8.104 0 0 0 1.87-1.083l3.73 1.133 2.205-3.818-2.842-2.66c.047-.355.072-.716.072-1.083zm-8.01 3.438a3.44 3.44 0 0 1-3.55-3.55 3.452 3.452 0 0 1 3.325-3.326 3.44 3.44 0 0 1 3.55 3.55 3.452 3.452 0 0 1-3.325 3.326z"/>
        <path fill="#FFF" fill-rule="nonzero" d="M28.008 18.514c0-.227-.016-.45-.045-.67l1.371-1.283a.67.67 0 0 0 .123-.823l-.833-1.443a.67.67 0 0 0-.775-.306l-1.8.547a5.026 5.026 0 0 0-1.157-.67l-.426-1.83a.67.67 0 0 0-.652-.517h-1.666a.67.67 0 0 0-.652.517l-.425 1.83a5.02 5.02 0 0 0-1.158.67l-1.8-.547a.67.67 0 0 0-.774.306l-.833 1.443a.67.67 0 0 0 .122.823L18 17.845a5.05 5.05 0 0 0 0 1.34l-1.37 1.283a.67.67 0 0 0-.123.823l.833 1.443a.67.67 0 0 0 .774.305l1.8-.546c.352.272.74.498 1.158.67l.425 1.83a.67.67 0 0 0 .652.518h1.666a.67.67 0 0 0 .652-.518l.426-1.83a5.012 5.012 0 0 0 1.157-.67l1.8.546a.67.67 0 0 0 .775-.305l.832-1.443a.67.67 0 0 0-.122-.823l-1.37-1.284c.028-.219.044-.442.044-.67zm-5.027 2.13a2.129 2.129 0 1 1 0-4.258 2.129 2.129 0 0 1 0 4.257z"/>
        <path fill="#000" fill-rule="nonzero" d="M7.14 11.786a3.897 3.897 0 0 0 3.892 3.892 3.896 3.896 0 0 0 3.892-3.892 3.897 3.897 0 0 0-3.892-3.892 3.897 3.897 0 0 0-3.892 3.892zm6.879 0a2.99 2.99 0 0 1-2.987 2.987 2.99 2.99 0 0 1-2.987-2.987 2.99 2.99 0 0 1 2.987-2.987 2.99 2.99 0 0 1 2.987 2.987z"/>
        <path fill="#000" d="M22.981 15.933a2.584 2.584 0 0 0-2.58 2.581 2.584 2.584 0 0 0 3.629 2.36.453.453 0 0 0-.368-.827 1.678 1.678 0 0 1-2.357-1.533c0-.924.752-1.676 1.676-1.676a1.678 1.678 0 0 1 1.576 2.25.452.452 0 1 0 .85.309 2.584 2.584 0 0 0-2.426-3.464z"/>
        <path fill="#000" fill-rule="nonzero" d="M28.438 19.009a5.5 5.5 0 0 0 0-.989l1.206-1.128c.382-.359.467-.926.204-1.38l-.832-1.443a1.117 1.117 0 0 0-1.298-.513l-1.582.48a5.47 5.47 0 0 0-.855-.494l-.374-1.608a1.117 1.117 0 0 0-1.093-.868h-1.666c-.524 0-.973.357-1.092.868l-.375 1.608-.142.07-.98-.918a8.594 8.594 0 0 0 0-1.817l1.981-1.855c.563-.527.686-1.36.301-2.027L20.586 4.82a1.64 1.64 0 0 0-1.906-.753l-2.602.79a8.574 8.574 0 0 0-1.57-.908l-.164-.705a.453.453 0 1 0-.881.205l.216.928c.033.143.133.26.268.316.63.26 1.225.604 1.766 1.023.116.09.268.117.408.075l2.821-.857a.74.74 0 0 1 .86.339l1.256 2.174a.74.74 0 0 1-.136.914l-2.15 2.012a.452.452 0 0 0-.139.391 7.725 7.725 0 0 1 0 2.044c-.02.145.033.29.14.39l.82.768-1.348-.41a1.117 1.117 0 0 0-1.298.513l-.833 1.443a1.117 1.117 0 0 0 .205 1.38l1.206 1.128c-.006.061-.01.123-.013.184l-1.39-.422a.453.453 0 0 0-.41.075 7.65 7.65 0 0 1-1.765 1.022.452.452 0 0 0-.268.316l-.668 2.869a.74.74 0 0 1-.723.574H9.776a.74.74 0 0 1-.723-.574l-.668-2.87a.452.452 0 0 0-.268-.315 7.65 7.65 0 0 1-1.766-1.022.453.453 0 0 0-.408-.075l-2.822.856a.74.74 0 0 1-.859-.34l-1.256-2.173a.74.74 0 0 1 .136-.914l2.15-2.013a.453.453 0 0 0 .139-.39 7.671 7.671 0 0 1 0-2.044.453.453 0 0 0-.14-.39L1.141 8.36a.74.74 0 0 1-.135-.914l1.256-2.174a.74.74 0 0 1 .86-.34l2.82.858c.14.042.293.014.409-.075a7.677 7.677 0 0 1 1.766-1.023.453.453 0 0 0 .268-.316l.668-2.868a.74.74 0 0 1 .723-.575h2.512c.347 0 .43-.07.51.268l.07.308a.453.453 0 0 0 .882-.205L13.68.997c-.175-.75-.621-.968-1.391-.968H9.776c-.77 0-1.43.524-1.605 1.275l-.615 2.645a8.587 8.587 0 0 0-1.57.909l-2.602-.79a1.641 1.641 0 0 0-1.906.752L.223 6.995a1.64 1.64 0 0 0 .3 2.027l1.983 1.855a8.662 8.662 0 0 0 0 1.817L.523 14.55a1.641 1.641 0 0 0-.3 2.027l1.255 2.174a1.64 1.64 0 0 0 1.906.753l2.602-.79c.49.358 1.016.663 1.57.909l.615 2.646a1.64 1.64 0 0 0 1.605 1.274h2.512c.77 0 1.43-.524 1.605-1.274l.615-2.646a8.564 8.564 0 0 0 1.57-.909l1.33.404-1.089 1.02a1.117 1.117 0 0 0-.205 1.38l.833 1.442c.262.454.796.665 1.298.513l1.582-.48c.27.19.555.355.854.493l.375 1.61c.119.51.568.867 1.092.867h1.666c.525 0 .974-.356 1.093-.867l.374-1.61a5.47 5.47 0 0 0 .855-.494l1.582.48a1.117 1.117 0 0 0 1.298-.512l.832-1.443a1.117 1.117 0 0 0-.204-1.38l-1.206-1.128zm.627 2.056l-.833 1.443a.216.216 0 0 1-.251.099l-1.8-.547a.452.452 0 0 0-.408.075c-.322.25-.677.454-1.053.61a.452.452 0 0 0-.269.316l-.426 1.83a.216.216 0 0 1-.21.167h-1.667a.216.216 0 0 1-.21-.167l-.427-1.83a.453.453 0 0 0-.268-.316 4.564 4.564 0 0 1-1.053-.61.452.452 0 0 0-.408-.075l-1.8.546a.216.216 0 0 1-.251-.099l-.833-1.442a.216.216 0 0 1 .04-.267l1.37-1.284a.452.452 0 0 0 .14-.39 4.611 4.611 0 0 1 0-1.22.452.452 0 0 0-.14-.39l-1.37-1.283a.216.216 0 0 1-.04-.267l.833-1.442a.216.216 0 0 1 .25-.1l1.8.547c.14.043.293.015.409-.075.322-.25.677-.455 1.053-.61a.452.452 0 0 0 .268-.316l.426-1.829a.216.216 0 0 1 .211-.168h1.666c.102 0 .189.07.211.168l.426 1.83c.033.142.133.26.268.315.377.155.731.36 1.054.61.116.09.268.118.408.075l1.8-.546c.097-.03.2.01.25.099l.834 1.442a.215.215 0 0 1-.04.267l-1.371 1.283a.452.452 0 0 0-.14.39 4.653 4.653 0 0 1 0 1.22c-.019.145.033.29.14.39l1.371 1.284c.074.07.09.179.04.267z"/>
    </g>
</svg>
