<svg xmlns="http://www.w3.org/2000/svg" width="80" height="72" viewBox="0 0 80 72">
    <path fill="#7ED321" fill-rule="nonzero" d="M59 23.789c4.416 2.767 7.512 7.45 8.076 12.886 1.8.841 3.799 1.325 5.918 1.325C80.73 38 87 31.732 87 24s-6.27-14-14.006-14c-7.662.002-13.877 6.158-13.994 13.789zM49.001 53C56.733 53 63 46.731 63 39c0-7.732-6.268-14-13.999-14C41.271 25 35 31.269 35 39c0 7.732 6.27 14 14.001 14zM53.5 3.667c3.032 0 5.5 2.741 5.5 6.11a6.118 6.118 0 0 1-6.111 6.112 1.222 1.222 0 1 1 0-2.445 3.671 3.671 0 0 0 3.667-3.666c0-2.022-1.37-3.667-3.056-3.667h-2.55l1.58 1.58a1.22 1.22 0 1 1-1.727 1.729l-4.531-4.531 4.53-4.53a1.22 1.22 0 1 1 1.729 1.727l-1.58 1.58H53.5zm-10.03 6.469a1.22 1.22 0 0 1 1.727 0l4.531 4.53-4.53 4.531a1.219 1.219 0 0 1-1.729 0 1.22 1.22 0 0 1 0-1.728l1.58-1.58H42.5c-3.032 0-5.5-2.741-5.5-6.111a6.118 6.118 0 0 1 6.111-6.111 1.222 1.222 0 1 1 0 2.444 3.671 3.671 0 0 0-3.667 3.667c0 2.021 1.37 3.666 3.056 3.666h2.55l-1.58-1.58a1.22 1.22 0 0 1 0-1.728zM55.6 54H43.404C33.256 54 25 62.059 25 71.963V86.52l.038.228 1.027.314C35.75 90.015 44.163 91 51.088 91c13.526 0 21.366-3.764 21.85-4.004l.96-.474H74v-14.56C74.004 62.06 65.748 54 55.6 54zm22.983-14H66.471c-.13 4.732-2.2 8.993-5.471 12.058 9.027 2.62 15.632 10.795 15.632 20.45V77c11.959-.428 18.85-3.738 19.304-3.96l.961-.476H97v-14.58C97 48.068 88.738 40 78.583 40zm-54.582-2c2.74 0 5.288-.8 7.446-2.161a17.328 17.328 0 0 1 6.514-11.051c.014-.263.039-.522.039-.787C38 16.268 31.73 10 24.001 10 16.267 10 10 16.268 10 24.001 10 31.731 16.267 38 24.001 38zM37 51.087c-3.217-3.057-5.254-7.305-5.403-12.02-.444-.032-.883-.067-1.336-.067h-12.06C8.165 39 0 47.087 0 57.027v14.614l.037.225 1.017.318C8.737 74.56 15.594 75.654 21.55 76v-4.413c.002-9.678 6.527-17.87 15.45-20.5z" opacity=".698"/>
</svg>
