<svg xmlns="http://www.w3.org/2000/svg" width="80" height="72" viewBox="0 0 80 72">
    <path fill="#FC6E51" fill-rule="nonzero" d="M59 23.789c4.416 2.767 7.512 7.45 8.076 12.886 1.8.841 3.799 1.325 5.918 1.325C80.73 38 87 31.732 87 24s-6.27-14-14.006-14c-7.662.002-13.877 6.158-13.994 13.789zM49.001 53C56.733 53 63 46.731 63 39c0-7.732-6.268-14-13.999-14C41.271 25 35 31.269 35 39c0 7.732 6.27 14 14.001 14zm6.6 1H43.403C33.256 54 25 62.059 25 71.963V86.52l.038.228 1.027.314C35.75 90.015 44.163 91 51.088 91c13.526 0 21.366-3.764 21.85-4.004l.96-.474H74v-14.56C74.004 62.06 65.748 54 55.6 54zm22.982-14H66.471c-.13 4.732-2.2 8.993-5.471 12.058 9.027 2.62 15.632 10.795 15.632 20.45V77c11.959-.428 18.85-3.738 19.304-3.96l.961-.476H97v-14.58C97 48.068 88.738 40 78.583 40zm-54.582-2c2.74 0 5.288-.8 7.446-2.161a17.328 17.328 0 0 1 6.514-11.051c.014-.263.039-.522.039-.787C38 16.268 31.73 10 24.001 10 16.267 10 10 16.268 10 24.001 10 31.731 16.267 38 24.001 38zM37 51.087c-8.923 2.63-15.448 10.822-15.45 20.5V76c-5.956-.345-12.813-1.44-20.496-3.816l-1.017-.318L0 71.641V57.027C0 47.087 8.165 39 18.2 39h12.061c.453 0 .892.035 1.336.067.149 4.715 2.186 8.963 5.403 12.02zM49 0c5.5 0 10 4.5 10 10s-4.5 10-10 10-10-4.5-10-10S43.5 0 49 0zm-1 14V6h-2v8h2zm4 0V6h-2v8h2z" opacity=".699"/>
</svg>
