<svg xmlns="http://www.w3.org/2000/svg" width="80" height="68" viewBox="0 0 80 68">
    <path fill="#A0D468" fill-rule="nonzero" d="M59 19.789c4.416 2.767 7.512 7.45 8.076 12.886 1.8.841 3.799 1.325 5.918 1.325C80.73 34 87 27.732 87 20S80.73 6 72.994 6C65.332 6.002 59.117 12.158 59 19.789zM49.001 49C56.733 49 63 42.731 63 35c0-7.732-6.268-14-13.999-14C41.271 21 35 27.269 35 35c0 7.732 6.27 14 14.001 14zm1.776-42.12h6.02v2.594h-6.02v6.82H48.02v-6.82H42V6.879h6.02V.58h2.757v6.3zM55.6 50H43.404C33.256 50 25 58.059 25 67.963V82.52l.038.228 1.027.314C35.75 86.015 44.163 87 51.088 87c13.526 0 21.366-3.764 21.85-4.004l.96-.474H74v-14.56C74.004 58.06 65.748 50 55.6 50zm22.983-14H66.471c-.13 4.732-2.2 8.993-5.471 12.058 9.027 2.62 15.632 10.795 15.632 20.45V73c11.959-.428 18.85-3.738 19.304-3.96l.961-.476H97v-14.58C97 44.068 88.738 36 78.583 36zm-54.582-2c2.74 0 5.288-.8 7.446-2.161a17.328 17.328 0 0 1 6.514-11.051c.014-.263.039-.522.039-.787C38 12.268 31.73 6 24.001 6 16.267 6 10 12.268 10 20.001 10 27.731 16.267 34 24.001 34zM37 47.087c-3.217-3.057-5.254-7.305-5.403-12.02-.444-.032-.883-.067-1.336-.067h-12.06C8.165 35 0 43.087 0 53.027v14.614l.037.225 1.017.318C8.737 70.56 15.594 71.654 21.55 72v-4.413c.002-9.678 6.527-17.87 15.45-20.5z" opacity=".7"/>
</svg>
