<svg xmlns="http://www.w3.org/2000/svg" width="80" height="79" viewBox="0 0 80 79">
    <path fill="#DD0008" fill-rule="nonzero" d="M59 30.789c4.416 2.767 7.512 7.45 8.076 12.886 1.8.841 3.799 1.325 5.918 1.325C80.73 45 87 38.732 87 31s-6.27-14-14.006-14c-7.662.002-13.877 6.158-13.994 13.789zM49.001 60C56.733 60 63 53.731 63 46c0-7.732-6.268-14-13.999-14C41.271 32 35 38.269 35 46c0 7.732 6.27 14 14.001 14zm6.6 1H43.403C33.256 61 25 69.059 25 78.963V93.52l.038.228 1.027.314C35.75 97.015 44.163 98 51.088 98c13.526 0 21.366-3.764 21.85-4.004l.96-.474H74v-14.56C74.004 69.06 65.748 61 55.6 61zm22.982-14H66.471c-.13 4.732-2.2 8.993-5.471 12.058 9.027 2.62 15.632 10.795 15.632 20.45V84c11.959-.428 18.85-3.738 19.304-3.96l.961-.476H97v-14.58C97 55.068 88.738 47 78.583 47zm-54.582-2c2.74 0 5.288-.8 7.446-2.161a17.328 17.328 0 0 1 6.514-11.051c.014-.263.039-.522.039-.787C38 23.268 31.73 17 24.001 17 16.267 17 10 23.268 10 31.001 10 38.731 16.267 45 24.001 45zM37 58.087c-3.217-3.057-5.254-7.305-5.403-12.02-.444-.032-.883-.067-1.336-.067h-12.06C8.165 46 0 54.087 0 64.027v14.614l.037.225 1.017.318C8.737 81.56 15.594 82.654 21.55 83v-4.413c.002-9.678 6.527-17.87 15.45-20.5zm2.995-54.343V.749a.748.748 0 1 1 1.498 0v2.995a.748.748 0 1 1-1.498 0zm12.73.749a.748.748 0 0 0 .748-.749V.749a.748.748 0 1 0-1.497 0v2.995c0 .414.335.749.749.749zM60.96 17.97a5.99 5.99 0 1 1-11.98 0 5.99 5.99 0 0 1 11.98 0zm-1.497 0a4.498 4.498 0 0 0-4.493-4.493 4.498 4.498 0 0 0-4.493 4.493 4.498 4.498 0 0 0 4.493 4.493 4.498 4.498 0 0 0 4.493-4.493zM42.99 8.985h-2.995v2.996h2.995V8.985zm-2.995 7.488h2.995v-2.995h-2.995v2.995zm4.493-4.492h2.995V8.985h-2.995v2.996zm0 4.492h2.995v-2.995h-2.995v2.995zm-5.99 1.349V7.488H54.97v2.995h1.497V4.642c0-.91-.725-1.647-1.621-1.647h-.625v.749a1.5 1.5 0 0 1-1.497 1.498 1.5 1.5 0 0 1-1.498-1.498v-.749h-8.986v.749a1.5 1.5 0 0 1-1.497 1.498 1.5 1.5 0 0 1-1.498-1.498v-.749h-.623c-.897 0-1.623.737-1.623 1.647v13.18c0 .906.726 1.647 1.623 1.647h8.86V17.97h-8.86c-.068 0-.125-.07-.125-.15zm13.478-5.841V8.985H48.98v2.996h2.995zm5.241 5.99h-2.246v-2.247a.748.748 0 1 0-1.498 0v2.996c0 .413.335.748.749.748h2.995a.748.748 0 1 0 0-1.497z" opacity=".701"/>
</svg>
