<svg xmlns="http://www.w3.org/2000/svg" width="38" height="50" viewBox="0 0 38 50">
    <g fill="none" fill-rule="evenodd">
        <path fill="#B90207" d="M12.94 10.745h12.69L36.784 0h-12.69z"/>
        <path fill="#9E9E9E" fill-rule="nonzero" d="M27.984 16.476H9.972v-7.88h18.012v7.88zm-15.965-2.047h13.918v-3.786H12.019v3.786z"/>
        <path fill="#DD0008" d="M25.63 10.745H12.94L1.683 0h12.792z"/>
        <circle cx="18.978" cy="30.189" r="18.932" fill="#9B9B9B"/>
        <path fill="#FFF" d="M18.978 44.516c-7.88 0-14.327-6.447-14.327-14.327s6.447-14.327 14.327-14.327 14.327 6.447 14.327 14.327-6.447 14.327-14.327 14.327z"/>
        <path fill="#D6D6D6" d="M18.978 17.295l2.968 9.005h9.517l-7.778 5.629 2.968 9.005-7.675-5.628-7.675 5.628 2.968-9.005L6.493 26.3h9.517z"/>
    </g>
</svg>
