<svg xmlns="http://www.w3.org/2000/svg" width="174" height="174" viewBox="0 0 174 174">
    <path fill="#000" fill-rule="evenodd" d="M66.426 69A11.977 11.977 0 0 1 75 60.426V69h-8.574zM90 72c0 5.577-3.836 10.233-9 11.574V60.426c5.164 1.34 9 5.997 9 11.574zm3.189-45C88.122 27 84 31.122 84 36.192v.639c0 2.08.713 4.119 2.013 5.742L102 62.553V96H6V24h96v8.304l-1.893-2.163A9.19 9.19 0 0 0 93.19 27zM18 81v-6h-6v6h6zm36 0v-6H24v6h30zm0-12v-6h-6V30h-6v33h-6V39h-6v24h-6V48h-6v15h-6v6h42zm42 3c0-9.924-8.073-18-18-18s-18 8.073-18 18 8.073 18 18 18 18-8.073 18-18zm-66 42h48v6H30v-6zm117-72c-6.618 0-12-5.382-12-12v-6c0-6.618 5.382-12 12-12s12 5.382 12 12v6c0 6.618-5.382 12-12 12zm-.349 17.98c.118.005.229.02.349.02.12 0 .231-.018.349-.02l2.491 19.937-2.84 2.84-2.84-2.84 2.491-19.938zM75 83.573A11.972 11.972 0 0 1 66.426 75H75v8.574zM108 12v6H0v-6h28.242l12-12h27.516l12 12H108zm-39 0V6H39v6h30zm84 38.175c-.744 1.146-2.811 3.825-6 3.828-3.195 0-5.265-2.691-6-3.825v-3.225c1.88.666 3.894 1.05 6 1.05s4.12-.38 6-1.05v3.222zM0 102h108v6H0v-6zm150 72v-72h12v72h-12zm-18-72h12v72h-12v-72zm-58.617 24h5.565l18.67 48h-5.566l-18.67-48zm95.464-70.134c2.94.42 5.153 2.972 5.153 5.94V108c0 1.655-1.345 3-3 3s-3-1.345-3-3V66h-6v30h-30V66h-18.12a2.98 2.98 0 0 1-2.34-1.128L90.7 38.82A3.203 3.203 0 0 1 90 36.828v-.639A3.195 3.195 0 0 1 93.189 33a3.18 3.18 0 0 1 2.4 1.088l20.223 23.11 20.706-2.958c.91 1.226 2.337 2.808 4.302 4.005l-2.98 23.838 9.16 9.16 9.155-9.16-2.978-23.838c1.965-1.194 3.393-2.779 4.302-4.005l11.368 1.626zM29.052 126h5.565l-18.67 48h-5.564l18.67-48zM51 126h6v48h-6v-48z" opacity=".076"/>
</svg>
