<svg xmlns="http://www.w3.org/2000/svg" width="80" height="72" viewBox="0 0 80 72">
    <path fill="#417505" fill-rule="nonzero" d="M59 23.789c4.416 2.767 7.512 7.45 8.076 12.886 1.8.841 3.799 1.325 5.918 1.325C80.73 38 87 31.732 87 24s-6.27-14-14.006-14c-7.662.002-13.877 6.158-13.994 13.789zm-9.999 29.258c7.732 0 13.999-6.269 13.999-14 0-7.732-6.268-14-13.999-14-7.73 0-14.001 6.269-14.001 14 0 7.732 6.27 14 14.001 14zM58.53 8.271a1.35 1.35 0 0 0 .343-1.393 1.35 1.35 0 0 0-1.097-.924l-4.586-.667a.599.599 0 0 1-.451-.328L50.689.804A1.35 1.35 0 0 0 49.47.047c-.52 0-.987.29-1.217.757L46.202 4.96a.6.6 0 0 1-.452.328l-4.586.666a1.35 1.35 0 0 0-1.097.925 1.35 1.35 0 0 0 .344 1.392l3.318 3.234a.6.6 0 0 1 .173.531l-.783 4.567c-.07.402.036.793.297 1.102.404.48 1.11.627 1.674.33l4.101-2.156a.614.614 0 0 1 .559 0l4.101 2.156c.2.105.413.158.632.158.401 0 .781-.178 1.042-.488.261-.309.366-.7.297-1.102l-.784-4.567a.6.6 0 0 1 .173-.53L58.53 8.27zM55.6 54H43.404C33.256 54 25 62.059 25 71.963V86.52l.038.228 1.027.314C35.75 90.015 44.163 91 51.088 91c13.526 0 21.366-3.764 21.85-4.004l.96-.474H74v-14.56C74.004 62.06 65.748 54 55.6 54zm22.983-14H66.471c-.13 4.732-2.2 8.993-5.471 12.058 9.027 2.62 15.632 10.795 15.632 20.45V77c11.959-.428 18.85-3.738 19.304-3.96l.961-.476H97v-14.58C97 48.068 88.738 40 78.583 40zm-54.582-2c2.74 0 5.288-.8 7.446-2.161a17.328 17.328 0 0 1 6.514-11.051c.014-.263.039-.522.039-.787C38 16.268 31.73 10 24.001 10 16.267 10 10 16.268 10 24.001 10 31.731 16.267 38 24.001 38zM37 51.087c-3.217-3.057-5.254-7.305-5.403-12.02-.444-.032-.883-.067-1.336-.067h-12.06C8.165 39 0 47.087 0 57.027v14.614l.037.225 1.017.318C8.737 74.56 15.594 75.654 21.55 76v-4.413c.002-9.678 6.527-17.87 15.45-20.5z" opacity=".704"/>
</svg>
